<svg xmlns="http://www.w3.org/2000/svg" xmlns:xlink="http://www.w3.org/1999/xlink" version="1.1" x="0px" y="0px" viewBox="0 0 100 100" enable-background="new 0 0 100 100" xml:space="preserve"><g><rect x="-192" width="185" height="99"></rect><rect y="-36" width="100" height="30"></rect><text transform="matrix(1 0 0 1 66 -19.5)" fill="#000000" font-family="'Helvetica'" font-size="2.4">http://thenounproject.com</text><text transform="matrix(1 0 0 1 7.166 -24.5)"><tspan x="0" y="0" fill="#000000" font-family="'Helvetica-Bold'" font-size="6.1578">The Noun Project</tspan><tspan x="1.12" y="4.8" fill="#000000" font-family="'Helvetica-Bold'" font-size="4">Icon Template</tspan></text><text transform="matrix(1 0 0 1 -178.5 10.5)" fill="#000000" font-family="'Helvetica-Bold'" font-size="6.1578">Reminders</text><line fill="#000000" stroke="#FFFFFF" stroke-miterlimit="10" x1="8" y1="-14.5" x2="18" y2="-14.5"></line><line fill="#000000" stroke="#FFFFFF" stroke-miterlimit="10" x1="-179" y1="16.5" x2="-162" y2="16.5"></line><g><g><g><rect x="-170.802" y="31.318" fill="#000000" width="8.721" height="8.642"></rect><path fill="#000000" d="M-164.455,42.312h4.747v-4.703h-4.747V42.312z M-159.266,42.749h-5.63V37.17h5.63V42.749      L-159.266,42.749z M-166.221,44.062h8.279v-8.203h-8.279V44.062L-166.221,44.062z M-157.5,44.5h-9.163v-9.079h9.163V44.5      L-157.5,44.5z"></path><polygon fill="#000000" points="-166.149,44.133 -166.292,43.991 -158.013,35.787 -157.871,35.929     "></polygon></g></g></g><rect x="-179" y="58" fill="none" width="35" height="32.5"></rect><text transform="matrix(1 0 0 1 -179 60.1572)"><tspan x="0" y="0" fill="#000000" font-family="'Helvetica-Bold'" font-size="3">Strokes</tspan><tspan x="0" y="5" fill="#000000" font-family="'Helvetica'" font-size="2.4">Try to keep strokes at 4px</tspan><tspan x="0" y="10" fill="#000000" font-family="'Helvetica'" font-size="2.4">Minimum stroke weight is 2px</tspan><tspan x="0" y="14.5" fill="#000000" font-family="'Helvetica'" font-size="2.4">For thicker strokes use even </tspan><tspan x="0" y="17.5" fill="#000000" font-family="'Helvetica'" font-size="2.4">numbers: 6px, 8px etc.</tspan><tspan x="0" y="22" fill="#000000" font-family="'Helvetica-Bold'" font-size="2.4">Remember to expand strokes </tspan><tspan x="0" y="25" fill="#000000" font-family="'Helvetica-Bold'" font-size="2.4">before saving as an SVG </tspan></text><rect x="-136.5" y="58" fill="none" width="35" height="32.5"></rect><text transform="matrix(1 0 0 1 -136.5 60.1572)"><tspan x="0" y="0" fill="#000000" font-family="'Helvetica-Bold'" font-size="3">Size</tspan><tspan x="0" y="5" fill="#000000" font-family="'Helvetica'" font-size="2.4">Cannot be wider or taller than </tspan><tspan x="0" y="8.5" fill="#000000" font-family="'Helvetica'" font-size="2.4">100px (artboard size)</tspan><tspan x="0" y="13.5" fill="#000000" font-family="'Helvetica'" font-size="2.4">Scale your icon to fill as much of </tspan><tspan x="0" y="16.5" fill="#000000" font-family="'Helvetica'" font-size="2.4">the artboard as possible</tspan></text><rect x="-94" y="58" fill="none" width="35" height="32.5"></rect><text transform="matrix(1 0 0 1 -94 60.1572)"><tspan x="0" y="0" fill="#000000" font-family="'Helvetica-Bold'" font-size="3">Ungroup</tspan><tspan x="0" y="5" fill="#000000" font-family="'Helvetica'" font-size="2.4">If your design has more than one </tspan><tspan x="0" y="8" fill="#000000" font-family="'Helvetica'" font-size="2.4">shape, make sure to ungroup</tspan></text><rect x="-50" y="58" fill="none" width="35" height="32.5"></rect><text transform="matrix(1 0 0 1 -50 60.1572)"><tspan x="0" y="0" fill="#000000" font-family="'Helvetica-Bold'" font-size="3">Save as</tspan><tspan x="0" y="5" fill="#000000" font-family="'Helvetica'" font-size="2.4">Save as .SVG and make sure </tspan><tspan x="0" y="8" fill="#000000" font-family="'Helvetica'" font-size="2.4">“Use Artboards” is checked</tspan></text><text transform="matrix(1.0074 0 0 1 -125.542 30.5933)" fill="#000000" font-family="'Helvetica'" font-size="2.5731">100px</text><text transform="matrix(1.0074 0 0 1 -41 39)" fill="#000000" font-family="'Helvetica-Bold'" font-size="5.1462">.SVG</text><rect x="-126.514" y="34.815" fill="#000000" width="10.261" height="10.185"></rect><rect x="-126.477" y="31.766" fill="#000000" width="0.522" height="2.337"></rect><rect x="-116.812" y="31.766" fill="#000000" width="0.523" height="2.337"></rect><rect x="-127" y="32.337" fill="#000000" width="11.233" height="0.572"></rect><g><rect x="-83.805" y="33.844" fill="#000000" width="10.305" height="10.156"></rect><rect x="-76.809" y="28.707" fill="#000000" width="3.308" height="3.261"></rect></g><rect x="-178.5" y="22.5" fill="#000000" stroke="#FFFFFF" stroke-miterlimit="10" width="30" height="30"></rect><rect x="-136.5" y="22.5" fill="#000000" stroke="#FFFFFF" stroke-miterlimit="10" width="30" height="30"></rect><rect x="-93.5" y="22.5" fill="#000000" stroke="#FFFFFF" stroke-miterlimit="10" width="30" height="30"></rect><rect x="-49.5" y="22.5" fill="#000000" stroke="#FFFFFF" stroke-miterlimit="10" width="30" height="30"></rect></g><g><path fill-rule="evenodd" clip-rule="evenodd" fill="#000000" d="M37.705,7.417L44.62,4l5.916,2.846l6.877-1.538l5.019,2.888   l-5.146-0.667l-6.797,2.156l-6.049-3.033L37.705,7.417z"></path><path fill="#000000" d="M66.5,11.795c1.341,0,2.429-1.087,2.429-2.428S67.841,6.938,66.5,6.938s-2.429,1.087-2.429,2.428   c0,0.76,0.35,1.438,0.896,1.883l-1.052,1.402c-1.187-0.502-2.201-0.609-2.413-0.209c-0.195,0.369,0.351,1.06,1.285,1.712   l-1.706,2.274c-1.445-0.566-2.647-0.663-2.91-0.166c-0.241,0.456,0.375,1.283,1.465,2.092l-1.148,1.53   c-2.593-1.521-5.61-2.397-8.834-2.397c-3.42,0-6.607,0.985-9.302,2.682l-1.158-1.544c1.216-0.854,1.924-1.756,1.669-2.239   c-0.277-0.524-1.601-0.389-3.151,0.263l-1.674-2.231c1.061-0.692,1.703-1.457,1.494-1.853c-0.226-0.427-1.364-0.277-2.649,0.313   l-1.115-1.487c0.657-0.435,1.09-1.179,1.09-2.025c0-1.341-1.087-2.428-2.428-2.428C31.087,6.938,30,8.025,30,9.367   s1.087,2.428,2.429,2.428c0.146,0,0.287-0.015,0.426-0.04l0.778,1.821c-1.004,0.674-1.602,1.406-1.398,1.79   c0.194,0.368,1.064,0.308,2.123-0.092l1.117,2.618c-1.171,0.839-1.844,1.713-1.593,2.187c0.238,0.452,1.252,0.413,2.518-0.021   l1.032,2.417c-3.247,3.175-5.265,7.601-5.265,12.5v0H67.14v0c0-5.139-2.218-9.76-5.748-12.959l0.936-2.191   c1.406,0.537,2.566,0.619,2.824,0.132c0.269-0.509-0.529-1.482-1.866-2.375l1.089-2.551c1.19,0.506,2.212,0.616,2.424,0.214   c0.221-0.418-0.507-1.249-1.675-1.968l0.677-1.584C66.021,11.758,66.256,11.795,66.5,11.795z"></path><path fill-rule="evenodd" clip-rule="evenodd" fill="#000000" d="M31.938,36.421v58.106h35.428V36.421H31.938z M61.581,93.666   H37.725V37.282h23.856V93.666z"></path></g></svg>